<!DOCTYPE svg PUBLIC "-//W3C//DTD SVG 1.1//EN" "http://www.w3.org/Graphics/SVG/1.1/DTD/svg11.dtd">
<!-- Uploaded to: SVG Repo, www.svgrepo.com, Transformed by: SVG Repo Mixer Tools -->
<svg version="1.1" id="Uploaded to svgrepo.com" xmlns="http://www.w3.org/2000/svg" xmlns:xlink="http://www.w3.org/1999/xlink" width="800px" height="800px" viewBox="0 0 32 32" xml:space="preserve" fill="#ffffff" stroke="#ffffff" stroke-width="0.16">
<g id="SVGRepo_bgCarrier" stroke-width="0"/>
<g id="SVGRepo_tracerCarrier" stroke-linecap="round" stroke-linejoin="round"/>
<g id="SVGRepo_iconCarrier"> <style type="text/css"> .dashing_een{fill:#ffffff;} </style> <path class="dashing_een" d="M22,18h-2c-0.276,0-0.5-0.224-0.5-0.5S19.724,17,20,17h2c0.276,0,0.5,0.224,0.5,0.5S22.276,18,22,18z M17.5,17.5c0-0.276-0.224-0.5-0.5-0.5h-2c-0.276,0-0.5,0.224-0.5,0.5S14.724,18,15,18h2C17.276,18,17.5,17.776,17.5,17.5z M12.5,17.5c0-0.276-0.224-0.5-0.5-0.5h-2c-0.276,0-0.5,0.224-0.5,0.5S9.724,18,10,18h2C12.276,18,12.5,17.776,12.5,17.5z M22.5,22.5c0-0.276-0.224-0.5-0.5-0.5h-2c-0.276,0-0.5,0.224-0.5,0.5S19.724,23,20,23h2C22.276,23,22.5,22.776,22.5,22.5z M17.5,22.5c0-0.276-0.224-0.5-0.5-0.5h-2c-0.276,0-0.5,0.224-0.5,0.5S14.724,23,15,23h2C17.276,23,17.5,22.776,17.5,22.5z M12.5,22.5c0-0.276-0.224-0.5-0.5-0.5h-2c-0.276,0-0.5,0.224-0.5,0.5S9.724,23,10,23h2C12.276,23,12.5,22.776,12.5,22.5z M22.5,12.5c0-0.276-0.224-0.5-0.5-0.5h-2c-0.276,0-0.5,0.224-0.5,0.5S19.724,13,20,13h2C22.276,13,22.5,12.776,22.5,12.5z M17.5,12.5c0-0.276-0.224-0.5-0.5-0.5h-2c-0.276,0-0.5,0.224-0.5,0.5S14.724,13,15,13h2C17.276,13,17.5,12.776,17.5,12.5z M12.5,12.5c0-0.276-0.224-0.5-0.5-0.5h-2c-0.276,0-0.5,0.224-0.5,0.5S9.724,13,10,13h2C12.276,13,12.5,12.776,12.5,12.5z M22.5,7.5 C22.5,7.224,22.276,7,22,7h-2c-0.276,0-0.5,0.224-0.5,0.5S19.724,8,20,8h2C22.276,8,22.5,7.776,22.5,7.5z M17.5,7.5 C17.5,7.224,17.276,7,17,7h-2c-0.276,0-0.5,0.224-0.5,0.5S14.724,8,15,8h2C17.276,8,17.5,7.776,17.5,7.5z M12.5,7.5 C12.5,7.224,12.276,7,12,7h-2C9.724,7,9.5,7.224,9.5,7.5S9.724,8,10,8h2C12.276,8,12.5,7.776,12.5,7.5z M28,31.5v-31 C28,0.224,27.776,0,27.5,0h-23C4.224,0,4,0.224,4,0.5v31C4,31.776,4.224,32,4.5,32h23C27.776,32,28,31.776,28,31.5z M5,1h22v30H5V1z "/> </g>
</svg>